<mxfile host="Electron" modified="2023-10-02T15:33:06.435Z" agent="Mozilla/5.0 (Windows NT 10.0; Win64; x64) AppleWebKit/537.36 (KHTML, like Gecko) draw.io/22.0.0 Chrome/114.0.5735.289 Electron/25.8.3 Safari/537.36" etag="RaWpXxA7xu4Xz8Rk93ek" version="22.0.0" type="device">
  <diagram name="Page-1" id="e7e014a7-5840-1c2e-5031-d8a46d1fe8dd">
    <mxGraphModel dx="724" dy="434" grid="1" gridSize="10" guides="1" tooltips="1" connect="1" arrows="1" fold="1" page="1" pageScale="1" pageWidth="1169" pageHeight="826" background="none" math="0" shadow="0">
      <root>
        <mxCell id="0" />
        <mxCell id="1" parent="0" />
        <mxCell id="2" value="View" style="swimlane;whiteSpace=wrap" parent="1" vertex="1">
          <mxGeometry x="40" y="128" width="280" height="570" as="geometry" />
        </mxCell>
        <mxCell id="7" value="idle" style="" parent="2" vertex="1">
          <mxGeometry x="60.13" y="172" width="110" height="50" as="geometry" />
        </mxCell>
        <mxCell id="10" value="save" style="" parent="2" vertex="1">
          <mxGeometry x="152.88" y="406.5" width="110" height="50" as="geometry" />
        </mxCell>
        <mxCell id="pJRz6XslyRYtE2uxAr1E-42" value="" style="shape=line;strokeWidth=6;strokeColor=#ff0000;rotation=-180;" parent="2" vertex="1">
          <mxGeometry x="90.13" y="314" width="50" height="15" as="geometry" />
        </mxCell>
        <mxCell id="pJRz6XslyRYtE2uxAr1E-55" value="test connection" style="" parent="2" vertex="1">
          <mxGeometry x="17.38" y="406.5" width="110" height="50" as="geometry" />
        </mxCell>
        <mxCell id="pJRz6XslyRYtE2uxAr1E-58" value="" style="edgeStyle=orthogonalEdgeStyle;elbow=horizontal;verticalAlign=bottom;endArrow=open;endSize=8;strokeColor=#FF0000;endFill=1;rounded=0;exitX=0.75;exitY=0.5;exitDx=0;exitDy=0;exitPerimeter=0;entryX=0.5;entryY=0;entryDx=0;entryDy=0;" parent="2" target="pJRz6XslyRYtE2uxAr1E-55" edge="1">
          <mxGeometry x="-229" y="-216" as="geometry">
            <mxPoint x="100.92000000000002" y="353.5" as="targetPoint" />
            <mxPoint x="102.63" y="324" as="sourcePoint" />
          </mxGeometry>
        </mxCell>
        <mxCell id="pJRz6XslyRYtE2uxAr1E-59" value="" style="edgeStyle=orthogonalEdgeStyle;elbow=horizontal;verticalAlign=bottom;endArrow=open;endSize=8;strokeColor=#FF0000;endFill=1;rounded=0;exitX=0.25;exitY=0.5;exitDx=0;exitDy=0;exitPerimeter=0;entryX=0.5;entryY=0;entryDx=0;entryDy=0;" parent="2" target="10" edge="1">
          <mxGeometry x="-229" y="-216" as="geometry">
            <mxPoint x="121.88" y="428.5" as="targetPoint" />
            <mxPoint x="127.63" y="324" as="sourcePoint" />
            <Array as="points">
              <mxPoint x="128.13" y="366.5" />
              <mxPoint x="208.13" y="366.5" />
            </Array>
          </mxGeometry>
        </mxCell>
        <mxCell id="pJRz6XslyRYtE2uxAr1E-60" value="on click" style="" parent="2" vertex="1">
          <mxGeometry x="60.13" y="244" width="110" height="50" as="geometry" />
        </mxCell>
        <mxCell id="pJRz6XslyRYtE2uxAr1E-61" value="" style="edgeStyle=elbowEdgeStyle;elbow=horizontal;verticalAlign=bottom;endArrow=open;endSize=8;strokeColor=#FF0000;endFill=1;rounded=0" parent="2" edge="1">
          <mxGeometry x="-229" y="-216" as="geometry">
            <mxPoint x="115.5" y="316" as="targetPoint" />
            <mxPoint x="114.70999999999998" y="294" as="sourcePoint" />
          </mxGeometry>
        </mxCell>
        <mxCell id="pJRz6XslyRYtE2uxAr1E-64" value="" style="edgeStyle=orthogonalEdgeStyle;elbow=horizontal;verticalAlign=bottom;endArrow=open;endSize=8;strokeColor=#FF0000;endFill=1;rounded=0;exitX=0;exitY=0.5;exitDx=0;exitDy=0;entryX=0;entryY=0.44;entryDx=0;entryDy=0;entryPerimeter=0;" parent="2" source="pJRz6XslyRYtE2uxAr1E-60" target="7" edge="1">
          <mxGeometry x="-229" y="-216" as="geometry">
            <mxPoint x="41.38" y="67" as="targetPoint" />
            <mxPoint x="41.38" y="269" as="sourcePoint" />
            <Array as="points">
              <mxPoint x="17.13" y="269" />
              <mxPoint x="17.13" y="194" />
            </Array>
          </mxGeometry>
        </mxCell>
        <mxCell id="pJRz6XslyRYtE2uxAr1E-72" value="" style="edgeStyle=elbowEdgeStyle;elbow=horizontal;verticalAlign=bottom;endArrow=open;endSize=8;strokeColor=#FF0000;endFill=1;rounded=0;entryX=0.5;entryY=0;entryDx=0;entryDy=0;exitX=0.5;exitY=1;exitDx=0;exitDy=0;" parent="2" source="7" edge="1">
          <mxGeometry x="-229" y="-216" as="geometry">
            <mxPoint x="115.13" y="244" as="targetPoint" />
            <mxPoint x="155.13" y="294" as="sourcePoint" />
          </mxGeometry>
        </mxCell>
        <mxCell id="pJRz6XslyRYtE2uxAr1E-89" value="" style="edgeStyle=elbowEdgeStyle;elbow=horizontal;verticalAlign=bottom;endArrow=open;endSize=8;strokeColor=#FF0000;endFill=1;rounded=0" parent="2" edge="1">
          <mxGeometry x="320" y="20" as="geometry">
            <mxPoint x="115.12999999999998" y="172" as="targetPoint" />
            <mxPoint x="115.12999999999998" y="132" as="sourcePoint" />
          </mxGeometry>
        </mxCell>
        <mxCell id="pJRz6XslyRYtE2uxAr1E-104" value="Actor" style="shape=umlActor;verticalLabelPosition=bottom;verticalAlign=top;html=1;" parent="2" vertex="1">
          <mxGeometry x="100.13" y="52" width="30" height="60" as="geometry" />
        </mxCell>
        <mxCell id="3" value="Controler" style="swimlane;whiteSpace=wrap" parent="1" vertex="1">
          <mxGeometry x="320" y="128" width="540" height="570" as="geometry" />
        </mxCell>
        <mxCell id="13" value="" style="ellipse;shape=startState;fillColor=#000000;strokeColor=#ff0000;" parent="3" vertex="1">
          <mxGeometry x="60" y="35" width="30" height="30" as="geometry" />
        </mxCell>
        <mxCell id="14" value="" style="edgeStyle=elbowEdgeStyle;elbow=horizontal;verticalAlign=bottom;endArrow=open;endSize=8;strokeColor=#FF0000;endFill=1;rounded=0;entryX=0.5;entryY=0;entryDx=0;entryDy=0;" parent="3" source="13" target="pJRz6XslyRYtE2uxAr1E-96" edge="1">
          <mxGeometry x="40" y="20" as="geometry">
            <mxPoint x="140" y="105.00000000000011" as="targetPoint" />
          </mxGeometry>
        </mxCell>
        <mxCell id="pJRz6XslyRYtE2uxAr1E-96" value="first run" style="rhombus;fillColor=#ffffc0;strokeColor=#ff0000;" parent="3" vertex="1">
          <mxGeometry x="35" y="112" width="80" height="40" as="geometry" />
        </mxCell>
        <mxCell id="pJRz6XslyRYtE2uxAr1E-97" value="" style="edgeStyle=elbowEdgeStyle;elbow=horizontal;verticalAlign=bottom;endArrow=open;endSize=8;strokeColor=#FF0000;endFill=1;rounded=0;entryX=0.5;entryY=0;entryDx=0;entryDy=0;" parent="3" edge="1">
          <mxGeometry x="-549" y="-344" as="geometry">
            <mxPoint x="75" y="242" as="targetPoint" />
            <mxPoint x="74.61000000000001" y="152" as="sourcePoint" />
          </mxGeometry>
        </mxCell>
        <mxCell id="pJRz6XslyRYtE2uxAr1E-98" value="yes" style="edgeLabel;html=1;align=center;verticalAlign=middle;resizable=0;points=[];" parent="pJRz6XslyRYtE2uxAr1E-97" vertex="1" connectable="0">
          <mxGeometry relative="1" as="geometry">
            <mxPoint x="-1" y="-37" as="offset" />
          </mxGeometry>
        </mxCell>
        <mxCell id="pJRz6XslyRYtE2uxAr1E-99" value="fill input withÂ &#xa;saved IP" style="" parent="3" vertex="1">
          <mxGeometry x="150" y="165" width="110" height="50" as="geometry" />
        </mxCell>
        <mxCell id="pJRz6XslyRYtE2uxAr1E-100" value="" style="edgeStyle=orthogonalEdgeStyle;elbow=horizontal;verticalAlign=bottom;endArrow=open;endSize=8;strokeColor=#FF0000;endFill=1;rounded=0;entryX=0.5;entryY=0;entryDx=0;entryDy=0;exitX=1;exitY=0.5;exitDx=0;exitDy=0;" parent="3" source="pJRz6XslyRYtE2uxAr1E-96" target="pJRz6XslyRYtE2uxAr1E-99" edge="1">
          <mxGeometry x="-549" y="-344" as="geometry">
            <mxPoint x="167.51" y="143" as="targetPoint" />
            <mxPoint x="167.51" y="121" as="sourcePoint" />
          </mxGeometry>
        </mxCell>
        <mxCell id="pJRz6XslyRYtE2uxAr1E-101" value="no" style="edgeLabel;html=1;align=center;verticalAlign=middle;resizable=0;points=[];" parent="pJRz6XslyRYtE2uxAr1E-100" vertex="1" connectable="0">
          <mxGeometry relative="1" as="geometry">
            <mxPoint x="-51" as="offset" />
          </mxGeometry>
        </mxCell>
        <mxCell id="pJRz6XslyRYtE2uxAr1E-102" value="idle" style="" parent="3" vertex="1">
          <mxGeometry x="20" y="242" width="110" height="50" as="geometry" />
        </mxCell>
        <mxCell id="pJRz6XslyRYtE2uxAr1E-103" value="" style="edgeStyle=orthogonalEdgeStyle;elbow=horizontal;verticalAlign=bottom;endArrow=open;endSize=8;strokeColor=#FF0000;endFill=1;rounded=0;entryX=1;entryY=0.5;entryDx=0;entryDy=0;exitX=0.5;exitY=1;exitDx=0;exitDy=0;" parent="3" source="pJRz6XslyRYtE2uxAr1E-99" target="pJRz6XslyRYtE2uxAr1E-102" edge="1">
          <mxGeometry x="-509" y="-216" as="geometry">
            <mxPoint x="190" y="262" as="targetPoint" />
            <mxPoint x="200" y="232" as="sourcePoint" />
            <Array as="points">
              <mxPoint x="205" y="267" />
            </Array>
          </mxGeometry>
        </mxCell>
        <mxCell id="pJRz6XslyRYtE2uxAr1E-116" value="&lt;font style=&quot;font-size: 11px;&quot;&gt;&lt;b&gt;Component&lt;/b&gt;&lt;br&gt;value change&lt;br&gt;&lt;/font&gt;" style="html=1;dropTarget=0;whiteSpace=wrap;" parent="3" vertex="1">
          <mxGeometry x="380" y="312" width="140" height="58" as="geometry" />
        </mxCell>
        <mxCell id="pJRz6XslyRYtE2uxAr1E-117" value="" style="shape=module;jettyWidth=8;jettyHeight=4;" parent="pJRz6XslyRYtE2uxAr1E-116" vertex="1">
          <mxGeometry x="1" width="20" height="20" relative="1" as="geometry">
            <mxPoint x="-27" y="7" as="offset" />
          </mxGeometry>
        </mxCell>
        <mxCell id="pJRz6XslyRYtE2uxAr1E-118" value="&lt;b&gt;Component&lt;/b&gt;&lt;br&gt;on focus" style="html=1;dropTarget=0;whiteSpace=wrap;" parent="3" vertex="1">
          <mxGeometry x="380" y="402" width="140" height="58" as="geometry" />
        </mxCell>
        <mxCell id="pJRz6XslyRYtE2uxAr1E-119" value="" style="shape=module;jettyWidth=8;jettyHeight=4;" parent="pJRz6XslyRYtE2uxAr1E-118" vertex="1">
          <mxGeometry x="1" width="20" height="20" relative="1" as="geometry">
            <mxPoint x="-27" y="7" as="offset" />
          </mxGeometry>
        </mxCell>
        <mxCell id="pJRz6XslyRYtE2uxAr1E-120" value="&lt;b&gt;Component&lt;/b&gt;&lt;br&gt;on end edit" style="html=1;dropTarget=0;whiteSpace=wrap;" parent="3" vertex="1">
          <mxGeometry x="380" y="490" width="140" height="58" as="geometry" />
        </mxCell>
        <mxCell id="pJRz6XslyRYtE2uxAr1E-121" value="" style="shape=module;jettyWidth=8;jettyHeight=4;" parent="pJRz6XslyRYtE2uxAr1E-120" vertex="1">
          <mxGeometry x="1" width="20" height="20" relative="1" as="geometry">
            <mxPoint x="-27" y="7" as="offset" />
          </mxGeometry>
        </mxCell>
        <mxCell id="pJRz6XslyRYtE2uxAr1E-125" value="" style="shape=line;strokeWidth=6;strokeColor=#ff0000;rotation=90;" parent="3" vertex="1">
          <mxGeometry x="125" y="419.5" width="120" height="15" as="geometry" />
        </mxCell>
        <mxCell id="pJRz6XslyRYtE2uxAr1E-127" value="" style="edgeStyle=orthogonalEdgeStyle;elbow=horizontal;verticalAlign=bottom;endArrow=open;endSize=8;strokeColor=#FF0000;endFill=1;rounded=0;exitX=0.135;exitY=0.389;exitDx=0;exitDy=0;exitPerimeter=0;" parent="3" source="pJRz6XslyRYtE2uxAr1E-125" target="pJRz6XslyRYtE2uxAr1E-116" edge="1">
          <mxGeometry x="-509" y="-216" as="geometry">
            <mxPoint x="370" y="342" as="targetPoint" />
            <mxPoint x="210.05" y="319" as="sourcePoint" />
            <Array as="points">
              <mxPoint x="187" y="412" />
              <mxPoint x="240" y="412" />
              <mxPoint x="240" y="382" />
              <mxPoint x="290" y="382" />
              <mxPoint x="290" y="342" />
            </Array>
          </mxGeometry>
        </mxCell>
        <mxCell id="pJRz6XslyRYtE2uxAr1E-130" value="" style="edgeStyle=elbowEdgeStyle;elbow=horizontal;verticalAlign=bottom;endArrow=open;endSize=8;strokeColor=#FF0000;endFill=1;rounded=0;entryX=0;entryY=0.5;entryDx=0;entryDy=0;exitX=0.535;exitY=0.46;exitDx=0;exitDy=0;exitPerimeter=0;" parent="3" source="pJRz6XslyRYtE2uxAr1E-125" target="pJRz6XslyRYtE2uxAr1E-118" edge="1">
          <mxGeometry x="40" y="20" as="geometry">
            <mxPoint x="325" y="423.25" as="targetPoint" />
            <mxPoint x="192.5" y="430.75" as="sourcePoint" />
            <Array as="points">
              <mxPoint x="290" y="430.75" />
            </Array>
          </mxGeometry>
        </mxCell>
        <mxCell id="pJRz6XslyRYtE2uxAr1E-133" value="" style="edgeStyle=orthogonalEdgeStyle;elbow=horizontal;verticalAlign=bottom;endArrow=open;endSize=8;strokeColor=#FF0000;endFill=1;rounded=0;exitX=0.75;exitY=0.5;exitDx=0;exitDy=0;exitPerimeter=0;entryX=0;entryY=0.5;entryDx=0;entryDy=0;" parent="3" source="pJRz6XslyRYtE2uxAr1E-125" target="pJRz6XslyRYtE2uxAr1E-120" edge="1">
          <mxGeometry x="-509" y="-216" as="geometry">
            <mxPoint x="350" y="452" as="targetPoint" />
            <mxPoint x="187" y="475.5" as="sourcePoint" />
            <Array as="points">
              <mxPoint x="185" y="452" />
              <mxPoint x="240" y="452" />
              <mxPoint x="240" y="482" />
              <mxPoint x="290" y="482" />
              <mxPoint x="290" y="519" />
            </Array>
          </mxGeometry>
        </mxCell>
        <mxCell id="pJRz6XslyRYtE2uxAr1E-138" value="&lt;font style=&quot;font-size: 11px;&quot;&gt;&lt;b&gt;Component&lt;/b&gt;&lt;br&gt;save action&lt;br&gt;&lt;/font&gt;" style="html=1;dropTarget=0;whiteSpace=wrap;" parent="3" vertex="1">
          <mxGeometry x="380" y="222" width="140" height="58" as="geometry" />
        </mxCell>
        <mxCell id="pJRz6XslyRYtE2uxAr1E-139" value="" style="shape=module;jettyWidth=8;jettyHeight=4;" parent="pJRz6XslyRYtE2uxAr1E-138" vertex="1">
          <mxGeometry x="1" width="20" height="20" relative="1" as="geometry">
            <mxPoint x="-27" y="7" as="offset" />
          </mxGeometry>
        </mxCell>
        <mxCell id="pJRz6XslyRYtE2uxAr1E-140" value="" style="edgeStyle=orthogonalEdgeStyle;elbow=horizontal;verticalAlign=bottom;endArrow=open;endSize=8;strokeColor=#FF0000;endFill=1;rounded=0;entryX=0;entryY=0.5;entryDx=0;entryDy=0;exitX=0.25;exitY=0.5;exitDx=0;exitDy=0;exitPerimeter=0;" parent="3" source="pJRz6XslyRYtE2uxAr1E-125" target="pJRz6XslyRYtE2uxAr1E-138" edge="1">
          <mxGeometry x="-509" y="-216" as="geometry">
            <mxPoint x="350" y="252" as="targetPoint" />
            <mxPoint x="200" y="342" as="sourcePoint" />
            <Array as="points">
              <mxPoint x="230" y="397" />
              <mxPoint x="230" y="372" />
              <mxPoint x="280" y="372" />
              <mxPoint x="280" y="251" />
            </Array>
          </mxGeometry>
        </mxCell>
        <mxCell id="pJRz6XslyRYtE2uxAr1E-141" value="user action" style="" parent="3" vertex="1">
          <mxGeometry x="20" y="332" width="110" height="50" as="geometry" />
        </mxCell>
        <mxCell id="pJRz6XslyRYtE2uxAr1E-142" value="" style="edgeStyle=elbowEdgeStyle;elbow=horizontal;verticalAlign=bottom;endArrow=open;endSize=8;strokeColor=#FF0000;endFill=1;rounded=0;exitX=0.493;exitY=1.037;exitDx=0;exitDy=0;exitPerimeter=0;entryX=0.494;entryY=-0.067;entryDx=0;entryDy=0;entryPerimeter=0;" parent="3" source="pJRz6XslyRYtE2uxAr1E-102" target="pJRz6XslyRYtE2uxAr1E-141" edge="1">
          <mxGeometry x="40" y="20" as="geometry">
            <mxPoint x="75" y="332" as="targetPoint" />
            <mxPoint x="74.71000000000001" y="292" as="sourcePoint" />
          </mxGeometry>
        </mxCell>
        <mxCell id="pJRz6XslyRYtE2uxAr1E-143" value="" style="edgeStyle=orthogonalEdgeStyle;elbow=horizontal;verticalAlign=bottom;endArrow=open;endSize=8;strokeColor=#FF0000;endFill=1;rounded=0;exitX=0.473;exitY=1.053;exitDx=0;exitDy=0;exitPerimeter=0;" parent="3" source="pJRz6XslyRYtE2uxAr1E-141" target="pJRz6XslyRYtE2uxAr1E-125" edge="1">
          <mxGeometry x="40" y="20" as="geometry">
            <mxPoint x="74.83" y="434.5" as="targetPoint" />
            <mxPoint x="74.83" y="399.5" as="sourcePoint" />
            <Array as="points">
              <mxPoint x="72" y="427" />
            </Array>
          </mxGeometry>
        </mxCell>
        <mxCell id="4" value="Behavoir" style="swimlane;whiteSpace=wrap;startSize=23;" parent="1" vertex="1">
          <mxGeometry x="860" y="128" width="144.5" height="570" as="geometry" />
        </mxCell>
        <mxCell id="38" value="" style="ellipse;shape=endState;fillColor=#000000;strokeColor=#ff0000" parent="4" vertex="1">
          <mxGeometry x="50" y="500" width="30" height="30" as="geometry" />
        </mxCell>
        <mxCell id="pJRz6XslyRYtE2uxAr1E-136" value="Actor" style="shape=umlActor;verticalLabelPosition=bottom;verticalAlign=top;html=1;" parent="4" vertex="1">
          <mxGeometry x="50" y="35" width="30" height="60" as="geometry" />
        </mxCell>
        <mxCell id="pJRz6XslyRYtE2uxAr1E-137" value="" style="edgeStyle=elbowEdgeStyle;elbow=horizontal;verticalAlign=bottom;endArrow=open;endSize=8;strokeColor=#000000;endFill=1;rounded=0;entryX=0.5;entryY=0;entryDx=0;entryDy=0;dashed=1;" parent="4" target="38" edge="1">
          <mxGeometry x="-500" y="20" as="geometry">
            <mxPoint x="64.58000000000004" y="169" as="targetPoint" />
            <mxPoint x="64.58000000000004" y="122" as="sourcePoint" />
          </mxGeometry>
        </mxCell>
        <mxCell id="pyt9vcqd9iDHeiA1ddqs-38" value="" style="edgeStyle=elbowEdgeStyle;elbow=horizontal;verticalAlign=bottom;endArrow=open;endSize=8;strokeColor=#FF0000;endFill=1;rounded=0;dashed=1;" edge="1" parent="4" target="38">
          <mxGeometry x="-500" y="20" as="geometry">
            <mxPoint x="64.63" y="182" as="targetPoint" />
            <mxPoint x="65" y="122" as="sourcePoint" />
          </mxGeometry>
        </mxCell>
      </root>
    </mxGraphModel>
  </diagram>
</mxfile>
